<mxGraphModel><root><mxCell id="0"/><mxCell id="1" parent="0"/><mxCell id="2" value="Start" style="ellipse;aspect=fixed;strokeWidth=2;whiteSpace=wrap;" vertex="1" parent="1"><mxGeometry x="105" y="8" width="50" height="50" as="geometry"/></mxCell><mxCell id="3" value="Initiate Project" style="rhombus;strokeWidth=2;whiteSpace=wrap;" vertex="1" parent="1"><mxGeometry x="51" y="108" width="158" height="158" as="geometry"/></mxCell><mxCell id="4" value="Analyze Requirements" style="rhombus;strokeWidth=2;whiteSpace=wrap;" vertex="1" parent="1"><mxGeometry x="26" y="316" width="209" height="209" as="geometry"/></mxCell><mxCell id="5" value="Design System Architecture" style="rhombus;strokeWidth=2;whiteSpace=wrap;" vertex="1" parent="1"><mxGeometry x="8" y="575" width="244" height="244" as="geometry"/></mxCell><mxCell id="6" value="Develop Features" style="rhombus;strokeWidth=2;whiteSpace=wrap;" vertex="1" parent="1"><mxGeometry x="44" y="869" width="173" height="173" as="geometry"/></mxCell><mxCell id="7" value="Testing and QA" style="rhombus;strokeWidth=2;whiteSpace=wrap;" vertex="1" parent="1"><mxGeometry x="52" y="1093" width="157" height="157" as="geometry"/></mxCell><mxCell id="8" value="Deployment" style="rhombus;strokeWidth=2;whiteSpace=wrap;" vertex="1" parent="1"><mxGeometry x="63" y="1299" width="135" height="135" as="geometry"/></mxCell><mxCell id="9" value="End" style="ellipse;aspect=fixed;strokeWidth=2;whiteSpace=wrap;" vertex="1" parent="1"><mxGeometry x="110" y="1484" width="41" height="41" as="geometry"/></mxCell><mxCell id="10" value="" style="curved=1;startArrow=none;endArrow=block;exitX=0.5;exitY=1.01;entryX=0.5;entryY=0;" edge="1" parent="1" source="2" target="3"><mxGeometry relative="1" as="geometry"><Array as="points"/></mxGeometry></mxCell><mxCell id="11" value="" style="curved=1;startArrow=none;endArrow=block;exitX=0.5;exitY=1;entryX=0.5;entryY=0;" edge="1" parent="1" source="3" target="4"><mxGeometry relative="1" as="geometry"><Array as="points"/></mxGeometry></mxCell><mxCell id="12" value="" style="curved=1;startArrow=none;endArrow=block;exitX=0.5;exitY=1;entryX=0.5;entryY=0;" edge="1" parent="1" source="4" target="5"><mxGeometry relative="1" as="geometry"><Array as="points"/></mxGeometry></mxCell><mxCell id="13" value="" style="curved=1;startArrow=none;endArrow=block;exitX=0.5;exitY=1;entryX=0.5;entryY=0;" edge="1" parent="1" source="5" target="6"><mxGeometry relative="1" as="geometry"><Array as="points"/></mxGeometry></mxCell><mxCell id="14" value="" style="curved=1;startArrow=none;endArrow=block;exitX=0.5;exitY=1;entryX=0.5;entryY=0;" edge="1" parent="1" source="6" target="7"><mxGeometry relative="1" as="geometry"><Array as="points"/></mxGeometry></mxCell><mxCell id="15" value="" style="curved=1;startArrow=none;endArrow=block;exitX=0.5;exitY=1;entryX=0.5;entryY=0;" edge="1" parent="1" source="7" target="8"><mxGeometry relative="1" as="geometry"><Array as="points"/></mxGeometry></mxCell><mxCell id="16" value="" style="curved=1;startArrow=none;endArrow=block;exitX=0.5;exitY=1;entryX=0.49;entryY=0.01;" edge="1" parent="1" source="8" target="9"><mxGeometry relative="1" as="geometry"><Array as="points"/></mxGeometry></mxCell></root></mxGraphModel>